<?xml version="1.0" standalone="no"?>
<!DOCTYPE svg PUBLIC "-//W3C//DTD SVG 20010904//EN"
 "http://www.w3.org/TR/2001/REC-SVG-20010904/DTD/svg10.dtd">
<svg version="1.0" xmlns="http://www.w3.org/2000/svg"
 width="600.000000pt" height="600.000000pt" viewBox="0 0 600.000000 600.000000"
 preserveAspectRatio="xMidYMid meet">

<g transform="translate(0.000000,600.000000) scale(0.100000,-0.100000)"
fill="#000000" stroke="none">
<path d="M2815 5994 c-423 -33 -785 -131 -1145 -310 -598 -297 -1057 -756
-1354 -1354 -214 -432 -310 -841 -310 -1330 0 -252 14 -392 60 -613 110 -523
362 -1014 723 -1410 418 -459 986 -783 1598 -911 221 -46 361 -60 613 -60 489
0 898 96 1330 310 598 297 1057 756 1354 1354 214 432 310 841 310 1330 0 489
-96 898 -310 1330 -297 598 -756 1057 -1354 1354 -311 154 -616 246 -965 291
-117 16 -450 27 -550 19z m176 -350 c17 -8 51 -31 76 -50 27 -20 56 -34 73
-34 35 0 45 -23 35 -88 -9 -61 -27 -88 -67 -100 -18 -6 -114 -13 -213 -15
-334 -10 -491 -66 -967 -349 -186 -110 -221 -136 -343 -247 -361 -330 -530
-553 -614 -807 -46 -137 -56 -198 -96 -559 -36 -321 -38 -332 -73 -410 l-35
-80 27 -195 c14 -107 26 -198 26 -203 0 -4 -11 -5 -25 -1 -37 9 -53 -31 -30
-75 19 -37 39 -48 60 -31 17 14 27 -4 100 -182 29 -70 67 -153 86 -184 47 -78
273 -310 611 -626 l288 -269 54 15 c30 9 58 21 61 26 3 6 10 10 16 10 18 0 8
-30 -22 -64 l-30 -35 103 -50 c126 -62 219 -86 380 -101 161 -14 356 -44 492
-75 l109 -25 96 20 c53 10 129 22 170 26 66 6 79 11 115 43 53 47 56 51 56 85
0 25 2 27 17 15 15 -13 16 -10 10 31 l-7 45 20 -23 c11 -13 28 -36 39 -50 l20
-27 16 23 c12 16 23 21 36 17 16 -5 19 -1 19 24 0 36 12 40 32 9 14 -21 14
-21 27 10 12 30 17 32 62 32 44 0 48 -2 51 -27 4 -37 19 -38 63 -3 l39 31 23
-26 c47 -50 72 -38 373 169 163 112 392 281 582 428 70 54 129 98 132 98 3 0
6 -10 7 -22 0 -15 2 -18 6 -8 3 8 10 26 15 39 7 19 11 21 23 11 22 -18 39 -7
86 57 51 71 92 115 143 156 l39 31 -7 -29 c-14 -55 -134 -313 -196 -421 -75
-131 -128 -208 -230 -334 -47 -58 -80 -109 -85 -130 -10 -48 -31 -86 -50 -94
-9 -3 -37 -6 -61 -6 -47 0 -104 -23 -104 -41 0 -6 5 -19 11 -30 10 -20 9 -20
-20 -5 -38 20 -52 20 -118 -1 -58 -18 -64 -30 -32 -59 29 -26 59 -88 59 -121
0 -27 -1 -27 -43 20 l-42 49 -40 -30 c-22 -16 -82 -73 -132 -126 -91 -94 -93
-97 -93 -145 l0 -49 -65 -4 c-36 -2 -70 -9 -77 -16 -6 -6 -13 -36 -16 -67 -2
-30 -9 -55 -15 -55 -5 0 -31 23 -58 52 l-47 51 -80 -16 c-44 -9 -96 -23 -116
-31 -32 -13 -36 -19 -30 -40 5 -21 2 -26 -20 -32 -19 -4 -53 7 -128 42 -108
50 -97 49 -255 42 -16 -1 -62 7 -103 16 -100 23 -308 31 -455 17 -66 -6 -151
-14 -188 -18 -68 -6 -69 -6 -67 18 4 46 2 49 -24 38 -20 -10 -31 -7 -69 19
-75 52 -408 224 -422 218 -24 -9 -138 14 -193 39 -30 14 -72 39 -94 56 -57 46
-101 58 -210 59 -130 0 -189 22 -267 99 -69 67 -112 151 -142 277 -23 100 -36
122 -80 145 -28 14 -37 31 -75 138 -43 122 -85 221 -250 596 l-88 200 -4 103
-4 102 31 0 c22 0 31 5 32 18 7 103 -85 391 -182 571 l-39 73 30 197 c40 257
56 337 91 446 56 173 117 260 316 445 147 136 189 189 229 290 29 74 43 94
121 173 111 112 338 325 388 363 38 29 39 29 160 26 l121 -3 13 38 c8 21 42
66 76 100 72 71 143 100 221 88 54 -8 69 0 166 87 94 85 114 86 111 10 l-2
-51 56 36 c73 46 176 94 333 154 69 26 126 48 128 48 2 1 17 -6 33 -15z m1061
-169 c284 -49 615 -231 800 -440 24 -27 164 -241 309 -475 l266 -425 26 -225
c15 -124 29 -280 33 -347 4 -68 10 -123 15 -123 5 0 20 18 35 39 26 39 62 65
51 37 -40 -103 -79 -297 -93 -455 -5 -63 -9 -79 -17 -66 -9 18 -4 273 8 340 3
17 2 24 -1 17 -22 -46 -74 -26 -74 29 0 23 -15 44 -67 98 -39 38 -91 105 -121
157 -47 79 -52 93 -47 129 15 101 16 133 5 175 -12 44 -19 53 -138 162 -66 62
-147 298 -127 375 7 29 5 29 -55 -2 -27 -14 -63 -25 -79 -25 -22 0 -88 42
-263 166 -287 205 -490 342 -629 422 -86 51 -114 62 -150 62 -142 1 -322 91
-359 180 -16 40 -6 91 26 121 19 18 40 25 92 29 37 4 83 3 102 -1 19 -5 36 -4
38 0 9 25 32 44 62 51 59 14 263 11 352 -5z m-1017 -1582 c-3 -27 -9 -57 -11
-68 -5 -21 -12 -20 -592 42 -323 34 -600 64 -617 66 -16 2 253 5 599 5 l628 2
-7 -47z m1176 33 c172 -37 281 -139 324 -303 20 -75 20 -274 0 -389 -35 -199
-137 -424 -241 -529 -71 -73 -172 -135 -269 -166 -62 -20 -99 -23 -319 -28
l-250 -6 -38 -219 c-20 -120 -39 -220 -41 -222 -2 -3 -132 -3 -288 -2 l-284 3
165 938 164 937 506 0 c395 0 519 -3 571 -14z m-1221 -291 c0 -7 -5 -37 -11
-65 -9 -44 -14 -50 -35 -50 -26 0 -1143 117 -1179 124 -11 2 260 4 603 5 537
1 622 -1 622 -14z m-54 -312 c-16 -90 -17 -93 -39 -93 -20 0 -1104 114 -1172
123 -16 2 251 5 594 6 l623 1 -6 -37z m-46 -250 c0 -3 -5 -35 -11 -70 -10 -54
-14 -63 -33 -63 -47 1 -1218 129 -1223 134 -4 3 280 6 630 6 351 0 637 -3 637
-7z m-55 -330 c-10 -74 -16 -93 -29 -93 -36 0 -1230 130 -1234 135 -3 3 282 5
632 5 l638 0 -7 -47z m-45 -250 c0 -30 -24 -133 -31 -133 -32 0 -1234 131
-1237 135 -3 3 281 5 631 5 351 0 637 -3 637 -7z m-56 -292 c3 -4 1 -36 -5
-70 -10 -52 -14 -61 -33 -61 -48 0 -1218 128 -1223 134 -4 3 278 6 625 6 347
0 633 -4 636 -9z"/>
<path d="M829 2238 c12 -23 25 -61 31 -83 6 -27 19 -46 38 -57 l28 -17 -34 72
c-43 95 -58 121 -72 125 -6 2 -2 -16 9 -40z"/>
<path d="M735 2260 c-5 -8 45 -83 52 -77 1 2 -3 22 -9 45 -10 40 -29 54 -43
32z"/>
<path d="M3600 3328 c-12 -73 -31 -177 -40 -231 l-18 -99 127 4 c193 5 207 18
240 214 26 150 26 186 3 207 -25 22 -107 37 -207 37 l-82 0 -23 -132z"/>
</g>
</svg>
